{
  "accessors": [
    {
      "bufferView": 3,
      "componentType": 5126,
      "count": 511,
      "max": [
        31.798030853271484,
        13.64024543762207,
        31.77492332458496
      ],
      "min": [
        -31.808338165283203,
        9.894749641418457,
        -31.813440322875977
      ],
      "type": "VEC3"
    },
    {
      "bufferView": 3,
      "byteOffset": 6132,
      "componentType": 5126,
      "count": 511,
      "max": [
        1.0,
        1.0,
        1.0
      ],
      "min": [
        -1.0,
        -1.0,
        -1.0
      ],
      "type": "VEC3"
    },
    {
      "bufferView": 2,
      "componentType": 5126,
      "count": 511,
      "max": [
        0.500469982624054,
        0.9967690110206604
      ],
      "min": [
        0.006173999980092049,
        0.4170030355453491
      ],
      "type": "VEC2"
    },
    {
      "bufferView": 1,
      "componentType": 5125,
      "count": 1338,
      "type": "SCALAR"
    },
    {
      "bufferView": 3,
      "byteOffset": 12264,
      "componentType": 5126,
      "count": 6885,
      "max": [
        62.45615768432617,
        10.129457473754883,
        62.45615768432617
      ],
      "min": [
        -62.45615768432617,
        -7.358448028564453,
        -62.45615768432617
      ],
      "type": "VEC3"
    },
    {
      "bufferView": 3,
      "byteOffset": 94884,
      "componentType": 5126,
      "count": 6885,
      "max": [
        1.0,
        1.0,
        1.0
      ],
      "min": [
        -1.0,
        -1.0,
        -1.0
      ],
      "type": "VEC3"
    },
    {
      "bufferView": 2,
      "byteOffset": 4088,
      "componentType": 5126,
      "count": 6885,
      "max": [
        1.2296890020370483,
        0.9970229864120483
      ],
      "min": [
        -0.10781200230121613,
        -0.0008208751678466797
      ],
      "type": "VEC2"
    },
    {
      "bufferView": 1,
      "byteOffset": 5352,
      "componentType": 5125,
      "count": 16596,
      "type": "SCALAR"
    },
    {
      "bufferView": 5,
      "componentType": 5126,
      "count": 5,
      "max": [
        1.0,
        0.0,
        0.0,
        0.0,
        0.0,
        1.0,
        0.0,
        0.0,
        0.0,
        0.0,
        1.0,
        0.0,
        0.0,
        0.0,
        0.0,
        1.0
      ],
      "min": [
        1.0,
        0.0,
        0.0,
        0.0,
        0.0,
        1.0,
        0.0,
        0.0,
        0.0,
        0.0,
        1.0,
        0.0,
        0.0,
        -13.640242576599121,
        0.0,
        1.0
      ],
      "type": "MAT4"
    },
    {
      "bufferView": 0,
      "componentType": 5123,
      "count": 511,
      "type": "VEC4"
    },
    {
      "bufferView": 4,
      "componentType": 5126,
      "count": 511,
      "max": [
        1.0,
        0.0,
        0.0,
        0.0
      ],
      "min": [
        1.0,
        0.0,
        0.0,
        0.0
      ],
      "type": "VEC4"
    },
    {
      "bufferView": 0,
      "byteOffset": 4088,
      "componentType": 5123,
      "count": 6885,
      "type": "VEC4"
    },
    {
      "bufferView": 4,
      "byteOffset": 8176,
      "componentType": 5126,
      "count": 6885,
      "max": [
        1.0,
        0.0,
        0.0,
        0.0
      ],
      "min": [
        1.0,
        0.0,
        0.0,
        0.0
      ],
      "type": "VEC4"
    }
  ],
  "asset": {
    "extras": {
      "author": "D3DARTM (https://sketchfab.com/D3DARTM)",
      "license": "CC-BY-NC-4.0 (http://creativecommons.org/licenses/by-nc/4.0/)",
      "source": "https://sketchfab.com/3d-models/button-from-portal-2-original-f1c4fcfc668a4577a30f4d1c8ed3ca9a",
      "title": "Button - from portal 2 (original)"
    },
    "generator": "Sketchfab-16.21.0",
    "version": "2.0"
  },
  "bufferViews": [
    {
      "buffer": 0,
      "byteLength": 59168,
      "byteStride": 8,
      "name": "shortBufferViews",
      "target": 34962
    },
    {
      "buffer": 0,
      "byteLength": 71736,
      "byteOffset": 59168,
      "name": "floatBufferViews",
      "target": 34963
    },
    {
      "buffer": 0,
      "byteLength": 59168,
      "byteOffset": 130904,
      "byteStride": 8,
      "name": "floatBufferViews",
      "target": 34962
    },
    {
      "buffer": 0,
      "byteLength": 177504,
      "byteOffset": 190072,
      "byteStride": 12,
      "name": "floatBufferViews",
      "target": 34962
    },
    {
      "buffer": 0,
      "byteLength": 118336,
      "byteOffset": 367576,
      "byteStride": 16,
      "name": "floatBufferViews",
      "target": 34962
    },
    {
      "buffer": 0,
      "byteLength": 320,
      "byteOffset": 485912,
      "name": "floatBufferViews"
    }
  ],
  "buffers": [
    {
      "byteLength": 486232,
      "uri": "ene.bin"
    }
  ],
  "extensionsUsed": [
    "KHR_texture_transform",
    "KHR_materials_specular",
    "KHR_materials_emissive_strength"
  ],
  "images": [
    {
      "uri": "textures/portal_button_switch_baseColor.jpeg"
    },
    {
      "uri": "textures/portal_button_switch_metallicRoughness.png"
    },
    {
      "uri": "textures/portal_button_blue_emissive.png"
    }
  ],
  "materials": [
    {
      "doubleSided": true,
      "extensions": {
        "KHR_materials_specular": {
          "specularColorFactor": [
            1.0,
            1.0,
            1.0
          ],
          "specularFactor": 0.12647657592861233
        }
      },
      "name": "portal_button_switch",
      "occlusionTexture": {
        "extensions": {
          "KHR_texture_transform": {
            "scale": [
              2.0000000000000027,
              2.0000000000000027
            ]
          }
        },
        "index": 1,
        "strength": 0.059428752544769654
      },
      "pbrMetallicRoughness": {
        "baseColorTexture": {
          "index": 0
        },
        "metallicFactor": 0.0,
        "metallicRoughnessTexture": {
          "index": 1
        },
        "roughnessFactor": 0.26666747936755614
      }
    },
    {
      "doubleSided": true,
      "emissiveFactor": [
        1.0,
        1.0,
        1.0
      ],
      "emissiveTexture": {
        "index": 2
      },
      "extensions": {
        "KHR_materials_emissive_strength": {
          "emissiveStrength": 4.678109495190842
        },
        "KHR_materials_specular": {
          "specularColorFactor": [
            1.0,
            1.0,
            1.0
          ],
          "specularFactor": 0.4678109495190842
        }
      },
      "name": "portal_button_blue",
      "occlusionTexture": {
        "extensions": {
          "KHR_texture_transform": {
            "scale": [
              3.000000000000003,
              3.000000000000003
            ]
          }
        },
        "index": 1,
        "strength": 0.53
      },
      "pbrMetallicRoughness": {
        "baseColorTexture": {
          "index": 0
        },
        "metallicFactor": 0.4739062061903426,
        "metallicRoughnessTexture": {
          "index": 1
        },
        "roughnessFactor": 0.43123940949153367
      }
    }
  ],
  "meshes": [
    {
      "name": "portal_button_reduced_2_portal_button_switch_0",
      "primitives": [
        {
          "attributes": {
            "JOINTS_0": 9,
            "NORMAL": 1,
            "POSITION": 0,
            "TEXCOORD_0": 2,
            "WEIGHTS_0": 10
          },
          "indices": 3,
          "material": 0,
          "mode": 4
        }
      ]
    },
    {
      "name": "portal_button_reduced_2_portal_button_blue_0",
      "primitives": [
        {
          "attributes": {
            "JOINTS_0": 11,
            "NORMAL": 5,
            "POSITION": 4,
            "TEXCOORD_0": 6,
            "TEXCOORD_1": 6,
            "WEIGHTS_0": 12
          },
          "indices": 7,
          "material": 1,
          "mode": 4
        }
      ]
    }
  ],
  "nodes": [
    {
      "children": [
        1
      ],
      "matrix": [
        1.5971394777297974,
        0.0,
        0.0,
        0.0,
        0.0,
        3.546362043426837e-16,
        -1.5971394777297974,
        0.0,
        0.0,
        1.5971394777297974,
        3.546362043426837e-16,
        0.0,
        0.0,
        0.0,
        0.0,
        1.0
      ],
      "name": "Sketchfab_model"
    },
    {
      "children": [
        2
      ],
      "matrix": [
        0.009999999776482582,
        0.0,
        0.0,
        0.0,
        0.0,
        0.0,
        0.009999999776482582,
        0.0,
        0.0,
        -0.009999999776482582,
        0.0,
        0.0,
        0.0,
        0.0,
        0.0,
        1.0
      ],
      "name": "22651b82dee743ada4984ec97caf27be.fbx"
    },
    {
      "children": [
        3,
        5
      ],
      "name": "RootNode"
    },
    {
      "children": [
        4
      ],
      "matrix": [
        -0.6667539179723689,
        -0.3329841223496841,
        -0.6667539179723695,
        0.0,
        -0.23545533094091287,
        0.9429324335619231,
        -0.23545533094091242,
        0.0,
        0.7071067811865474,
        4.0245584642661925e-16,
        -0.707106781186547,
        0.0,
        125.51329803466797,
        75.1074447631836,
        132.54412841796875,
        1.0
      ],
      "name": "CINEMA_4D_Editor"
    },
    {
      "name": "Object_4"
    },
    {
      "children": [
        6
      ],
      "name": "portal_button_reduced"
    },
    {
      "children": [
        7,
        8,
        9
      ],
      "name": "Object_6"
    },
    {
      "children": [
        10
      ],
      "name": "_rootJoint"
    },
    {
      "mesh": 0,
      "name": "Object_8",
      "skin": 0
    },
    {
      "mesh": 1,
      "name": "Object_9",
      "skin": 0
    },
    {
      "children": [
        11
      ],
      "name": "skeleton_00"
    },
    {
      "children": [
        12
      ],
      "name": "portal_button_export_01"
    },
    {
      "children": [
        13
      ],
      "name": "portal_button_root_02"
    },
    {
      "name": "portal_button_top_03",
      "translation": [
        0.0,
        13.640242576599121,
        0.0
      ]
    }
  ],
  "samplers": [
    {
      "magFilter": 9729,
      "minFilter": 9987,
      "wrapS": 10497,
      "wrapT": 10497
    }
  ],
  "scene": 0,
  "scenes": [
    {
      "name": "Sketchfab_Scene",
      "nodes": [
        0
      ]
    }
  ],
  "skins": [
    {
      "inverseBindMatrices": 8,
      "joints": [
        7,
        10,
        11,
        12,
        13
      ],
      "skeleton": 7
    }
  ],
  "textures": [
    {
      "sampler": 0,
      "source": 0
    },
    {
      "sampler": 0,
      "source": 1
    },
    {
      "sampler": 0,
      "source": 2
    }
  ]
}
