{
  "accessors": [
    {
      "bufferView": 2,
      "componentType": 5126,
      "count": 366,
      "max": [
        0.7144102454185486,
        0.7144086956977844,
        0.4460945725440979
      ],
      "min": [
        -0.7143130302429199,
        -0.7143149375915527,
        -0.13512909412384033
      ],
      "type": "VEC3"
    },
    {
      "bufferView": 2,
      "byteOffset": 4392,
      "componentType": 5126,
      "count": 366,
      "max": [
        0.9999950528144836,
        0.9999950528144836,
        0.9999439716339111
      ],
      "min": [
        -0.9999950528144836,
        -0.9999950528144836,
        -1.0
      ],
      "type": "VEC3"
    },
    {
      "bufferView": 1,
      "componentType": 5126,
      "count": 366,
      "max": [
        0.0,
        0.0
      ],
      "min": [
        0.0,
        0.0
      ],
      "type": "VEC2"
    },
    {
      "bufferView": 0,
      "componentType": 5125,
      "count": 906,
      "type": "SCALAR"
    },
    {
      "bufferView": 2,
      "byteOffset": 8784,
      "componentType": 5126,
      "count": 80,
      "max": [
        0.12458638846874237,
        0.1245846152305603,
        -0.039231233298778534
      ],
      "min": [
        -0.12448897957801819,
        -0.12449084967374802,
        -0.10350487381219864
      ],
      "type": "VEC3"
    },
    {
      "bufferView": 2,
      "byteOffset": 9744,
      "componentType": 5126,
      "count": 80,
      "max": [
        0.9999950528144836,
        0.9999950528144836,
        1.0
      ],
      "min": [
        -0.9999949932098389,
        -0.9999950528144836,
        -9.328213081971626e-07
      ],
      "type": "VEC3"
    },
    {
      "bufferView": 1,
      "byteOffset": 2928,
      "componentType": 5126,
      "count": 80,
      "max": [
        0.0,
        0.0
      ],
      "min": [
        0.0,
        0.0
      ],
      "type": "VEC2"
    },
    {
      "bufferView": 0,
      "byteOffset": 3624,
      "componentType": 5125,
      "count": 138,
      "type": "SCALAR"
    },
    {
      "bufferView": 2,
      "byteOffset": 10704,
      "componentType": 5126,
      "count": 84,
      "max": [
        0.08022784441709518,
        0.08300705254077911,
        0.03751843050122261
      ],
      "min": [
        -0.08173590898513794,
        -0.08446135371923447,
        -0.6960495710372925
      ],
      "type": "VEC3"
    },
    {
      "bufferView": 2,
      "byteOffset": 11712,
      "componentType": 5126,
      "count": 84,
      "max": [
        0.9801621437072754,
        0.9479445219039917,
        1.0
      ],
      "min": [
        -0.9801622033119202,
        -0.9479440450668335,
        -1.0
      ],
      "type": "VEC3"
    },
    {
      "bufferView": 1,
      "byteOffset": 3568,
      "componentType": 5126,
      "count": 84,
      "max": [
        1.0,
        1.0
      ],
      "min": [
        -8.940696716308594e-08,
        0.009999975562095642
      ],
      "type": "VEC2"
    },
    {
      "bufferView": 0,
      "byteOffset": 4176,
      "componentType": 5125,
      "count": 132,
      "type": "SCALAR"
    },
    {
      "bufferView": 2,
      "byteOffset": 12720,
      "componentType": 5126,
      "count": 336,
      "max": [
        9.314164161682129,
        1.9087448120117188,
        12.561324119567871
      ],
      "min": [
        -9.299763679504395,
        -10.218969345092773,
        3.417675495147705
      ],
      "type": "VEC3"
    },
    {
      "bufferView": 2,
      "byteOffset": 16752,
      "componentType": 5126,
      "count": 336,
      "max": [
        1.0,
        0.921858549118042,
        1.0
      ],
      "min": [
        -1.0,
        -0.9218578338623047,
        -1.0
      ],
      "type": "VEC3"
    },
    {
      "bufferView": 1,
      "byteOffset": 4240,
      "componentType": 5126,
      "count": 336,
      "max": [
        1.0,
        1.0
      ],
      "min": [
        -8.940696716308594e-08,
        0.01000000536441803
      ],
      "type": "VEC2"
    },
    {
      "bufferView": 0,
      "byteOffset": 4704,
      "componentType": 5125,
      "count": 612,
      "type": "SCALAR"
    },
    {
      "bufferView": 2,
      "byteOffset": 20784,
      "componentType": 5126,
      "count": 1708,
      "max": [
        10.061097145080566,
        17.71342658996582,
        12.86735725402832
      ],
      "min": [
        -10.062193870544434,
        -11.412726402282715,
        -12.090208053588867
      ],
      "type": "VEC3"
    },
    {
      "bufferView": 2,
      "byteOffset": 41280,
      "componentType": 5126,
      "count": 1708,
      "max": [
        1.0,
        1.0,
        1.0
      ],
      "min": [
        -1.0,
        -1.0,
        -1.0
      ],
      "type": "VEC3"
    },
    {
      "bufferView": 1,
      "byteOffset": 6928,
      "componentType": 5126,
      "count": 1708,
      "max": [
        1.0,
        1.0
      ],
      "min": [
        0.0,
        0.01000000536441803
      ],
      "type": "VEC2"
    },
    {
      "bufferView": 0,
      "byteOffset": 7152,
      "componentType": 5125,
      "count": 4248,
      "type": "SCALAR"
    },
    {
      "bufferView": 2,
      "byteOffset": 61776,
      "componentType": 5126,
      "count": 383,
      "max": [
        8.80663776397705,
        -11.412726402282715,
        6.778621673583984
      ],
      "min": [
        -8.807730674743652,
        -26.35042381286621,
        -10.835748672485352
      ],
      "type": "VEC3"
    },
    {
      "bufferView": 2,
      "byteOffset": 66372,
      "componentType": 5126,
      "count": 383,
      "max": [
        1.0,
        1.0,
        1.0
      ],
      "min": [
        -1.0,
        -0.9996635913848877,
        -1.0
      ],
      "type": "VEC3"
    },
    {
      "bufferView": 1,
      "byteOffset": 20592,
      "componentType": 5126,
      "count": 383,
      "max": [
        0.951570451259613,
        0.45157063007354736
      ],
      "min": [
        0.5484294891357422,
        0.04842948168516159
      ],
      "type": "VEC2"
    },
    {
      "bufferView": 0,
      "byteOffset": 24144,
      "componentType": 5125,
      "count": 1422,
      "type": "SCALAR"
    },
    {
      "bufferView": 2,
      "byteOffset": 70968,
      "componentType": 5126,
      "count": 10,
      "max": [
        5.066770553588867,
        -12.28531551361084,
        -9.031474113464355
      ],
      "min": [
        -4.832369327545166,
        -18.173423767089844,
        -10.835748672485352
      ],
      "type": "VEC3"
    },
    {
      "bufferView": 2,
      "byteOffset": 71088,
      "componentType": 5126,
      "count": 10,
      "max": [
        0.5555732250213623,
        0.0,
        1.0
      ],
      "min": [
        -0.5555732250213623,
        0.0,
        0.8314676880836487
      ],
      "type": "VEC3"
    },
    {
      "bufferView": 1,
      "byteOffset": 23656,
      "componentType": 5126,
      "count": 10,
      "max": [
        0.8605862855911255,
        0.45157063007354736
      ],
      "min": [
        0.6340241432189941,
        0.410275936126709
      ],
      "type": "VEC2"
    },
    {
      "bufferView": 0,
      "byteOffset": 29832,
      "componentType": 5125,
      "count": 24,
      "type": "SCALAR"
    },
    {
      "bufferView": 2,
      "byteOffset": 71208,
      "componentType": 5126,
      "count": 432,
      "max": [
        10.632403373718262,
        -8.95440673828125,
        14.097723007202148
      ],
      "min": [
        3.9083762168884277,
        -15.947492599487305,
        4.089636325836182
      ],
      "type": "VEC3"
    },
    {
      "bufferView": 2,
      "byteOffset": 76392,
      "componentType": 5126,
      "count": 432,
      "max": [
        0.99688321352005,
        0.9987244009971619,
        0.9499900937080383
      ],
      "min": [
        -0.9977356195449829,
        -0.99840247631073,
        -0.9493960738182068
      ],
      "type": "VEC3"
    },
    {
      "bufferView": 1,
      "byteOffset": 23736,
      "componentType": 5126,
      "count": 432,
      "max": [
        1.0,
        1.0
      ],
      "min": [
        0.0,
        0.0
      ],
      "type": "VEC2"
    },
    {
      "bufferView": 0,
      "byteOffset": 29928,
      "componentType": 5125,
      "count": 2256,
      "type": "SCALAR"
    }
  ],
  "asset": {
    "extras": {
      "author": "Signalrenders (https://sketchfab.com/Signalrenders)",
      "license": "CC-BY-4.0 (http://creativecommons.org/licenses/by/4.0/)",
      "source": "https://sketchfab.com/3d-models/first-motor-siren-55070fbdcc754a08aa270acea7d89e6c",
      "title": "First Motor Siren"
    },
    "generator": "Sketchfab-14.1.2",
    "version": "2.0"
  },
  "bufferViews": [
    {
      "buffer": 0,
      "byteLength": 38952,
      "name": "floatBufferViews",
      "target": 34963
    },
    {
      "buffer": 0,
      "byteLength": 27192,
      "byteOffset": 38952,
      "byteStride": 8,
      "name": "floatBufferViews",
      "target": 34962
    },
    {
      "buffer": 0,
      "byteLength": 81576,
      "byteOffset": 66144,
      "byteStride": 12,
      "name": "floatBufferViews",
      "target": 34962
    }
  ],
  "buffers": [
    {
      "byteLength": 147720,
      "uri": "scene.bin"
    }
  ],
  "materials": [
    {
      "doubleSided": true,
      "name": "motor_red",
      "pbrMetallicRoughness": {
        "baseColorFactor": [
          0.388299,
          0.006513540000000002,
          0.007205289999999978,
          1.0
        ],
        "metallicFactor": 0.5592397995879607,
        "roughnessFactor": 0.12647657592861233
      }
    },
    {
      "doubleSided": true,
      "name": "Material.002",
      "pbrMetallicRoughness": {
        "baseColorFactor": [
          0.042027,
          0.0354176,
          0.0268721,
          1.0
        ],
        "metallicFactor": 0.7542880130682302,
        "roughnessFactor": 0.9952104263858794
      }
    },
    {
      "doubleSided": true,
      "name": "Material.005",
      "pbrMetallicRoughness": {
        "baseColorFactor": [
          0.152324,
          0.152324,
          0.152324,
          1.0
        ],
        "metallicFactor": 0.7908595530957808,
        "roughnessFactor": 0.9659393181395322
      }
    },
    {
      "doubleSided": true,
      "name": "Material.008",
      "pbrMetallicRoughness": {
        "baseColorFactor": [
          0.119275,
          0.119275,
          0.119275,
          1.0
        ],
        "metallicFactor": 0.7664785264107471,
        "roughnessFactor": 0.026447508057990003
      }
    },
    {
      "doubleSided": true,
      "name": "siren_hull",
      "pbrMetallicRoughness": {
        "baseColorFactor": [
          0.438542,
          0.438542,
          0.438542,
          1.0
        ],
        "metallicFactor": 0.6140971096292864,
        "roughnessFactor": 0.5017127671246236
      }
    },
    {
      "doubleSided": true,
      "name": "Material.009",
      "pbrMetallicRoughness": {
        "baseColorFactor": [
          0.661862,
          0.661862,
          0.661862,
          1.0
        ],
        "metallicFactor": 0.0,
        "roughnessFactor": 0.19694993356170232
      }
    },
    {
      "doubleSided": true,
      "name": "Material.010",
      "pbrMetallicRoughness": {
        "baseColorFactor": [
          0.0178229,
          0.0173263,
          0.0272095,
          1.0
        ],
        "metallicFactor": 0.0,
        "roughnessFactor": 0.18475942021918546
      }
    }
  ],
  "meshes": [
    {
      "name": "Cylinder.001_motor red_0",
      "primitives": [
        {
          "attributes": {
            "NORMAL": 1,
            "POSITION": 0,
            "TEXCOORD_0": 2
          },
          "indices": 3,
          "material": 0,
          "mode": 4
        }
      ]
    },
    {
      "name": "Cylinder.001_Material.002_0",
      "primitives": [
        {
          "attributes": {
            "NORMAL": 5,
            "POSITION": 4,
            "TEXCOORD_0": 6
          },
          "indices": 7,
          "material": 1,
          "mode": 4
        }
      ]
    },
    {
      "name": "Cylinder.001_Material.005_0",
      "primitives": [
        {
          "attributes": {
            "NORMAL": 9,
            "POSITION": 8,
            "TEXCOORD_0": 10
          },
          "indices": 11,
          "material": 2,
          "mode": 4
        }
      ]
    },
    {
      "name": "Cylinder.003_Material.008_0",
      "primitives": [
        {
          "attributes": {
            "NORMAL": 13,
            "POSITION": 12,
            "TEXCOORD_0": 14
          },
          "indices": 15,
          "material": 3,
          "mode": 4
        }
      ]
    },
    {
      "name": "Cylinder.003_siren hull_0",
      "primitives": [
        {
          "attributes": {
            "NORMAL": 17,
            "POSITION": 16,
            "TEXCOORD_0": 18
          },
          "indices": 19,
          "material": 4,
          "mode": 4
        }
      ]
    },
    {
      "name": "Cylinder.003_motor red_0",
      "primitives": [
        {
          "attributes": {
            "NORMAL": 21,
            "POSITION": 20,
            "TEXCOORD_0": 22
          },
          "indices": 23,
          "material": 0,
          "mode": 4
        }
      ]
    },
    {
      "name": "Cylinder.003_Material.009_0",
      "primitives": [
        {
          "attributes": {
            "NORMAL": 25,
            "POSITION": 24,
            "TEXCOORD_0": 26
          },
          "indices": 27,
          "material": 5,
          "mode": 4
        }
      ]
    },
    {
      "name": "Cylinder.003_Material.010_0",
      "primitives": [
        {
          "attributes": {
            "NORMAL": 29,
            "POSITION": 28,
            "TEXCOORD_0": 30
          },
          "indices": 31,
          "material": 6,
          "mode": 4
        }
      ]
    }
  ],
  "nodes": [
    {
      "children": [
        1
      ],
      "matrix": [
        1.0,
        0.0,
        0.0,
        0.0,
        0.0,
        2.220446049250313e-16,
        -1.0,
        0.0,
        0.0,
        1.0,
        2.220446049250313e-16,
        0.0,
        0.0,
        0.0,
        0.0,
        1.0
      ],
      "name": "Sketchfab_model"
    },
    {
      "children": [
        2
      ],
      "matrix": [
        0.009999999776482582,
        0.0,
        0.0,
        0.0,
        0.0,
        0.0,
        0.009999999776482582,
        0.0,
        0.0,
        -0.009999999776482582,
        0.0,
        0.0,
        0.0,
        0.0,
        0.0,
        1.0
      ],
      "name": "62a52ef9baa64c3dae126483b4750e8e.fbx"
    },
    {
      "children": [
        3,
        7
      ],
      "name": "RootNode"
    },
    {
      "children": [
        4,
        5,
        6
      ],
      "matrix": [
        -8.008677129715883,
        -15.756095719469995,
        -7.910210975742307e-14,
        0.0,
        15.756095719469979,
        -8.008677129715874,
        7.725838102977383e-07,
        0.0,
        -6.88720909696125e-07,
        3.500703536169834e-07,
        17.674655914306623,
        0.0,
        35.24846267700195,
        21.677053451538086,
        -5.703333854675293,
        1.0
      ],
      "name": "Cylinder.001"
    },
    {
      "mesh": 0,
      "name": "Cylinder.001_motor red_0"
    },
    {
      "mesh": 1,
      "name": "Cylinder.001_Material.002_0"
    },
    {
      "mesh": 2,
      "name": "Cylinder.001_Material.005_0"
    },
    {
      "children": [
        8,
        9,
        10,
        11,
        12
      ],
      "matrix": [
        -1.4810805320739746,
        -0.0,
        -0.0,
        -0.0,
        -0.0,
        2.412986465195071e-07,
        1.481080532073955,
        -0.0,
        -0.0,
        -1.481080532073955,
        2.412986465195071e-07,
        -0.0,
        35.25094223022461,
        18.672866821289063,
        -17.707321166992188,
        1.0
      ],
      "name": "Cylinder.003"
    },
    {
      "mesh": 3,
      "name": "Cylinder.003_Material.008_0"
    },
    {
      "mesh": 4,
      "name": "Cylinder.003_siren hull_0"
    },
    {
      "mesh": 5,
      "name": "Cylinder.003_motor red_0"
    },
    {
      "mesh": 6,
      "name": "Cylinder.003_Material.009_0"
    },
    {
      "mesh": 7,
      "name": "Cylinder.003_Material.010_0"
    }
  ],
  "scene": 0,
  "scenes": [
    {
      "name": "Sketchfab_Scene",
      "nodes": [
        0
      ]
    }
  ]
}
